<svg width="14" height="14" viewBox="0 0 14 14" fill="none" xmlns="http://www.w3.org/2000/svg">
<path fill-rule="evenodd" clip-rule="evenodd" d="M5.8335 1.16666C5.36937 1.16666 4.92425 1.35103 4.59606 1.67922C4.26787 2.00741 4.0835 2.45253 4.0835 2.91666V3.49999H2.3335C1.367 3.49999 0.583496 4.28349 0.583496 5.24999V11.0833C0.583496 12.0498 1.367 12.8333 2.3335 12.8333H11.6668C12.6333 12.8333 13.4168 12.0498 13.4168 11.0833V5.24999C13.4168 4.28349 12.6333 3.49999 11.6668 3.49999H9.91683V2.91666C9.91683 2.45253 9.73246 2.00741 9.40427 1.67922C9.07608 1.35103 8.63096 1.16666 8.16683 1.16666H5.8335ZM8.75016 3.49999V2.91666C8.75016 2.76195 8.68871 2.61357 8.57931 2.50418C8.46991 2.39478 8.32154 2.33332 8.16683 2.33332H5.8335C5.67879 2.33332 5.53041 2.39478 5.42102 2.50418C5.31162 2.61357 5.25016 2.76195 5.25016 2.91666V3.49999H8.75016ZM5.25016 4.66666H8.75016V11.6667H5.25016V4.66666ZM4.0835 4.66666H2.3335C2.01133 4.66666 1.75016 4.92782 1.75016 5.24999V11.0833C1.75016 11.4055 2.01133 11.6667 2.3335 11.6667H4.0835V4.66666ZM9.91683 11.6667V4.66666H11.6668C11.989 4.66666 12.2502 4.92782 12.2502 5.24999V11.0833C12.2502 11.4055 11.989 11.6667 11.6668 11.6667H9.91683Z" fill="#12F7D6"/>
</svg>
