<svg width="20" height="20" viewBox="0 0 20 20" fill="none" xmlns="http://www.w3.org/2000/svg">
<path d="M9.99986 1.87225C8.02109 1.87233 6.10691 2.57651 4.59983 3.85879C3.09275 5.14107 2.09111 6.91777 1.77414 8.87099C1.45716 10.8242 1.84554 12.8265 2.86978 14.5195C3.89401 16.2126 5.48727 17.486 7.36446 18.1118C7.78113 18.1848 7.93738 17.9348 7.93738 17.716C7.93738 17.5181 7.92695 16.8618 7.92695 16.1639C5.83319 16.5493 5.29153 15.6535 5.12486 15.1848C4.93992 14.7289 4.64676 14.3249 4.27069 14.0077C3.97903 13.8514 3.56236 13.466 4.26027 13.4556C4.52676 13.4845 4.78235 13.5772 5.00539 13.7259C5.22842 13.8746 5.41233 14.0749 5.54153 14.3097C5.6555 14.5145 5.80876 14.6947 5.99252 14.8402C6.17628 14.9856 6.38692 15.0933 6.61239 15.1572C6.83785 15.221 7.0737 15.2398 7.30643 15.2123C7.53915 15.1849 7.76417 15.1118 7.96859 14.9972C8.00467 14.5736 8.19348 14.1775 8.49986 13.8827C6.64569 13.6744 4.70819 12.9556 4.70819 9.76811C4.69648 8.9399 5.0021 8.13859 5.56236 7.52852C5.30759 6.80871 5.3374 6.01876 5.64569 5.32019C5.64569 5.32019 6.34358 5.10143 7.93736 6.17436C9.30093 5.79934 10.7405 5.79934 12.104 6.17436C13.6978 5.09102 14.3957 5.32019 14.3957 5.32019C14.704 6.01875 14.7338 6.80871 14.479 7.52852C15.041 8.13755 15.3469 8.93955 15.3332 9.76811C15.3332 12.966 13.3853 13.6744 11.5311 13.8827C11.73 14.0843 11.8832 14.3263 11.9802 14.5923C12.0773 14.8583 12.1159 15.1421 12.0936 15.4244C12.0936 16.539 12.0832 17.4348 12.0832 17.716C12.0832 17.9348 12.2394 18.1952 12.6561 18.1119C14.53 17.4809 16.1187 16.2046 17.1385 14.5106C18.1584 12.8167 18.5431 10.8154 18.2239 8.86411C17.9048 6.91279 16.9025 5.13839 15.3961 3.85768C13.8897 2.57696 11.9771 1.87328 9.99986 1.87225Z" fill="#12F7D6"/>
</svg>
